<?xml version="1.0" standalone="no"?>
<!DOCTYPE svg PUBLIC "-//W3C//DTD SVG 1.1//EN" "http://www.w3.org/Graphics/SVG/1.1/DTD/svg11.dtd">
<svg xmlns="http://www.w3.org/2000/svg" xmlns:xlink="http://www.w3.org/1999/xlink" id="katman_1" data-name="katman 1" viewBox="0 0 1559.06 708.66" width="1559.06005859375" height="708.6599731445312"><defs><style>.cls-1{fill:url(#Adsız_degrade_144);}.cls-2{fill:url(#Adsız_degrade_128);}.cls-3{fill:url(#Adsız_degrade_118);}.cls-4{fill:url(#Adsız_degrade_10);}.cls-5{fill:url(#Adsız_degrade_9);}</style><linearGradient id="Adsız_degrade_144" x1="131.66" y1="149.91" x2="402.05" y2="492.71" gradientUnits="userSpaceOnUse"><stop offset="0.01" stop-color="#1254ad"/><stop offset="0.07" stop-color="#104a97"/><stop offset="0.16" stop-color="#0d3b79"/><stop offset="0.24" stop-color="#0b3267"/><stop offset="0.3" stop-color="#0a2f60"/><stop offset="0.37" stop-color="#0a2e5d"/><stop offset="0.42" stop-color="#092954"/><stop offset="0.47" stop-color="#072144"/><stop offset="0.51" stop-color="#05162d"/><stop offset="0.55" stop-color="#020811"/><stop offset="0.57"/><stop offset="0.6" stop-color="#030f1e"/><stop offset="0.64" stop-color="#061d3b"/><stop offset="0.67" stop-color="#08274f"/><stop offset="0.71" stop-color="#0a2d5c"/><stop offset="0.75" stop-color="#0a2f60"/><stop offset="0.82" stop-color="#0a2e5e"/><stop offset="0.85" stop-color="#092b57"/><stop offset="0.87" stop-color="#08254c"/><stop offset="0.89" stop-color="#061d3b"/><stop offset="0.9" stop-color="#041225"/><stop offset="0.91" stop-color="#01050a"/><stop offset="0.92"/></linearGradient><linearGradient id="Adsız_degrade_128" x1="427.03" y1="515.46" x2="429.33" y2="219.36" gradientUnits="userSpaceOnUse"><stop offset="0" stop-color="#23acad"/><stop offset="0.03" stop-color="#1c98ad"/><stop offset="0.08" stop-color="#1076ad"/><stop offset="0.13" stop-color="#075ead"/><stop offset="0.18" stop-color="#024fad"/><stop offset="0.22" stop-color="#004aad"/><stop offset="0.51" stop-color="#063b82"/><stop offset="0.72" stop-color="#0a2f60"/><stop offset="0.82" stop-color="#0a2e5e"/><stop offset="0.87" stop-color="#092a56"/><stop offset="0.91" stop-color="#082449"/><stop offset="0.94" stop-color="#061b36"/><stop offset="0.97" stop-color="#030f1e"/><stop offset="1" stop-color="#000001"/><stop offset="1"/></linearGradient><linearGradient id="Adsız_degrade_118" x1="463.94" y1="161.98" x2="110.45" y2="517.43" gradientUnits="userSpaceOnUse"><stop offset="0" stop-color="#23acad"/><stop offset="0.07" stop-color="#188cad"/><stop offset="0.14" stop-color="#0d6fad"/><stop offset="0.22" stop-color="#065bad"/><stop offset="0.29" stop-color="#014ead"/><stop offset="0.36" stop-color="#004aad"/><stop offset="0.5" stop-color="#0148a8"/><stop offset="0.65" stop-color="#03439a"/><stop offset="0.82" stop-color="#063b82"/><stop offset="1" stop-color="#0a2f61"/><stop offset="1" stop-color="#0a2f60"/></linearGradient><linearGradient id="Adsız_degrade_10" x1="974.87" y1="357.99" x2="1205.61" y2="361.55" gradientUnits="userSpaceOnUse"><stop offset="0" stop-color="#23acad"/><stop offset="0.04" stop-color="#178aad"/><stop offset="0.09" stop-color="#0d6ead"/><stop offset="0.13" stop-color="#065aad"/><stop offset="0.18" stop-color="#014ead"/><stop offset="0.22" stop-color="#004aad"/><stop offset="0.46" stop-color="#063b82"/><stop offset="0.64" stop-color="#0a2f60"/><stop offset="0.73" stop-color="#0a2e5d"/><stop offset="0.8" stop-color="#092954"/><stop offset="0.85" stop-color="#072245"/><stop offset="0.9" stop-color="#051730"/><stop offset="0.95" stop-color="#020a14"/><stop offset="0.97"/></linearGradient><linearGradient id="Adsız_degrade_9" x1="1198.96" y1="358.82" x2="1412.45" y2="358.82" gradientUnits="userSpaceOnUse"><stop offset="0" stop-color="#009fe3"/><stop offset="0.2" stop-color="#004aad"/><stop offset="0.45" stop-color="#063b82"/><stop offset="0.64" stop-color="#0a2f60"/><stop offset="0.72" stop-color="#0a2d5c"/><stop offset="0.79" stop-color="#082851"/><stop offset="0.86" stop-color="#071f3f"/><stop offset="0.93" stop-color="#041224"/><stop offset="0.99" stop-color="#000103"/><stop offset="1"/></linearGradient></defs><path d="M594.85,392.52V373.65h85.23l24.68-31.52H594.85V325.54h89.79l27.79-36.08H551.72V428.19H685.26l27.58-35.67Z"/><path d="M883.09,289.46,838.5,332.59l-44.17-43.13H734.82l42.51,39.81c21.77,20.33,27.17,25.09,32.35,28.83-5.18,3.94-11.2,8.92-32.35,28.41l-45.21,41.68h53.3l48.73-45.83,47.28,45.83H942L897.6,386.51C875.21,365.56,869,359.76,864,356.44c5.18-3.94,11.61-9.54,30.9-27l43.75-40Z"/><path class="cls-1" d="M389.41,436.92h0L361,399.77l-.13.21-26-33.73-62.24-80.72h0l-33.5-43.45-32-41.49a19.74,19.74,0,0,0-15.29-7.6l-36.68-.65c-8.73-.16-13.81,9.49-8.57,16.27l56.48,73.13,0,0,2,2.55h0l33.06,42.82h0l29.29,37.93L339.19,458l.13.19,1.4,1.82c.06.08.14.15.2.23a21.56,21.56,0,0,0,4.22,3.72l.84.55a21.19,21.19,0,0,0,29.64-6.23l13.86-21.44Z"/><path class="cls-2" d="M511,328.71l-6.53-9.43L442.6,229.74l-.7-1a21.94,21.94,0,0,0-4.1-4.25l-.81-.63a21.78,21.78,0,0,0-30.59,3.66L390,248.34v0l.12-.15h0l26.22,38.67,0,.06,4.64,6.85,9.44,13.72c3,4.33,5.93,8.48,8.33,11.75h-.25L447.94,333a16.29,16.29,0,0,1,0,18.43l-9.45,13.72h.25c-2.4,3.26-5.33,7.42-8.33,11.75L421,390.61l-30.62,45.17-14.23,21.66A21.73,21.73,0,0,1,346,463.67l-.85-.55a21.7,21.7,0,0,1-4.5-3.95l15.13,19.47c7.39,10.3,18.22,19.81,35.38,19.81,16.38,0,27.21-8.72,34.87-19.81l78.41-113.49,6.53-9.44a23.8,23.8,0,0,0,0-27Z"/><path class="cls-3" d="M379.17,262.92a23.6,23.6,0,0,1,1.39-2l26.05-33.13a21.79,21.79,0,0,1,30.6-3.66l.8.63a21.9,21.9,0,0,1,4.1,4.24l-15.86-23c-7.66-11.09-18.49-19.81-34.86-19.81-17.16,0-28,9.51-35.38,19.81l-72.26,93h0l-16.64,21.41-19.46,25.05L237.16,359h0l-33.81,43.52-2,2.59,0,0v0l-57.77,74.34a10.31,10.31,0,0,0-2.23,6.26,10.72,10.72,0,0,0,1.64,5.77,10.87,10.87,0,0,0,1,1.39,10.3,10.3,0,0,0,5.19,3.17,4.54,4.54,0,0,0,.53.12,9.84,9.84,0,0,0,1.23.17,8.7,8.7,0,0,0,.89,0H188.5a19.53,19.53,0,0,0,15.42-7.55l17-21.92,15.71-20.26L253,425.54l17.88-23h0l63.66-82.06L379.19,263l.21-.33Z"/><path class="cls-4" d="M1201.31,429.33l-86.68-125.46c-6-8.71-14.52-15.55-27.37-15.55-13.48,0-22,7.47-27.79,15.55l-89,125.46h50.8l65.12-92.07,24.88,36.7c4.56,6.64,10.37,15.14,14.1,20.12-6.63-.42-16.38-.42-24.67-.42H1065.9L1040,429.33Z"/><path class="cls-5" d="M1392.49,401.23c-9.54-9.74-14.72-14.72-19.49-18.25,22.81-4.56,36.29-22.39,36.29-44,0-39.6-39.81-49.56-71.33-49.56h-89.17l-28,36.08h120.69c14.73,0,23.64,5.39,23.64,16.18,0,9.54-10.37,15.55-23.64,15.55H1220.79v70.92h42.93v-36.7h65.94l30.9,36.7H1418Z"/></svg>